Maname-Informal-Ltn-Regular.ufo
<glyph name="ampersand" format="1">
  <advance width="790"/>
  <unicode hex="0026"/>
  <outline>
    <contour>
      <point x="242" y="471" type="line"/>
      <point x="115" y="387"/>
      <point x="40" y="330"/>
      <point x="40" y="200" type="curve" smooth="yes"/>
      <point x="40" y="78"/>
      <point x="160" y="-2"/>
      <point x="291" y="-2" type="curve" smooth="yes"/>
      <point x="533" y="-2"/>
      <point x="653" y="207"/>
      <point x="712" y="402" type="curve"/>
      <point x="683" y="424"/>
      <point x="635" y="431"/>
      <point x="589" y="421" type="curve"/>
      <point x="561" y="265"/>
      <point x="510" y="86"/>
      <point x="336" y="86" type="curve" smooth="yes"/>
      <point x="234" y="86"/>
      <point x="156" y="149"/>
      <point x="154" y="239" type="curve" smooth="yes"/>
      <point x="153" y="295"/>
      <point x="178" y="359"/>
      <point x="276" y="414" type="curve"/>
    </contour>
    <contour>
      <point x="454" y="504"/>
      <point x="470" y="492"/>
      <point x="488" y="484" type="curve"/>
      <point x="537" y="527"/>
      <point x="570" y="571"/>
      <point x="570" y="650" type="curve" smooth="yes"/>
      <point x="570" y="758"/>
      <point x="486" y="816"/>
      <point x="377" y="816" type="curve" smooth="yes"/>
      <point x="280" y="816"/>
      <point x="147" y="772"/>
      <point x="147" y="627" type="curve" smooth="yes"/>
      <point x="147" y="428"/>
      <point x="569" y="52"/>
      <point x="603" y="-3" type="curve"/>
      <point x="744" y="1" type="line"/>
      <point x="586" y="216"/>
      <point x="263" y="446"/>
      <point x="263" y="634" type="curve" smooth="yes"/>
      <point x="263" y="721"/>
      <point x="307" y="753"/>
      <point x="359" y="753" type="curve" smooth="yes"/>
      <point x="398" y="753"/>
      <point x="469" y="722"/>
      <point x="469" y="634" type="curve" smooth="yes"/>
      <point x="469" y="592"/>
      <point x="456" y="556"/>
      <point x="443" y="520" type="curve"/>
    </contour>
  </outline>
</glyph>
<glyph name="period" format="1">
	<unicode hex="002E"/>
	<advance width="318"/>
	<outline>
		<contour>
			<point x="199" y="-28"/>
			<point x="234" y="4"/>
			<point x="234" y="53" type="curve" smooth="yes"/>
			<point x="234" y="100"/>
			<point x="198" y="130"/>
			<point x="157" y="130" type="curve" smooth="yes"/>
			<point x="111" y="130"/>
			<point x="75" y="96"/>
			<point x="75" y="49" type="curve" smooth="yes"/>
			<point x="75" y="0"/>
			<point x="105" y="-28"/>
			<point x="152" y="-28" type="curve" smooth="yes"/>
		</contour>
	</outline>
</glyph>
<glyph name="slash" format="1">
	<unicode hex="002F"/>
	<advance width="533"/>
	<outline>
		<contour>
			<point x="105" y="-80" type="line"/>
			<point x="393" y="560" type="line" smooth="yes"/>
			<point x="443" y="670"/>
			<point x="499" y="787"/>
			<point x="528" y="846" type="curve"/>
			<point x="426" y="842" type="line"/>
			<point x="4" y="-80" type="line"/>
		</contour>
	</outline>
</glyph>
<glyph name="three" format="1">
  <advance width="619"/>
  <unicode hex="0033"/>
  <outline>
    <contour>
      <point x="443" y="9"/>
      <point x="585" y="91"/>
      <point x="579" y="252" type="curve" smooth="yes"/>
      <point x="574" y="397"/>
      <point x="460" y="458"/>
      <point x="302" y="444" type="curve"/>
      <point x="313" y="420" type="line"/>
      <point x="454" y="444"/>
      <point x="551" y="552"/>
      <point x="550" y="667" type="curve" smooth="yes"/>
      <point x="549" y="769"/>
      <point x="488" y="833"/>
      <point x="338" y="833" type="curve" smooth="yes"/>
      <point x="238" y="833"/>
      <point x="159" y="808"/>
      <point x="107" y="784" type="curve"/>
      <point x="107" y="784"/>
      <point x="103" y="710"/>
      <point x="110" y="642" type="curve"/>
      <point x="176" y="654" type="line"/>
      <point x="189" y="729"/>
      <point x="228" y="768"/>
      <point x="295" y="771" type="curve" smooth="yes"/>
      <point x="363" y="774"/>
      <point x="427" y="734"/>
      <point x="427" y="650" type="curve" smooth="yes"/>
      <point x="427" y="545"/>
      <point x="354" y="477"/>
      <point x="208" y="455" type="curve"/>
      <point x="216" y="384" type="line"/>
      <point x="350" y="387"/>
      <point x="456" y="336"/>
      <point x="457" y="240" type="curve" smooth="yes"/>
      <point x="458" y="157"/>
      <point x="409" y="74"/>
      <point x="309" y="62" type="curve" smooth="yes"/>
      <point x="197" y="49"/>
      <point x="125" y="110"/>
      <point x="97" y="168" type="curve"/>
      <point x="78" y="126"/>
      <point x="65" y="50"/>
      <point x="69" y="12" type="curve"/>
      <point x="119" y="-2"/>
      <point x="213" y="-16"/>
      <point x="313" y="-5" type="curve" smooth="yes"/>
    </contour>
  </outline>
</glyph>
<glyph name="C" format="1">
	<unicode hex="0043"/>
	<advance width="748"/>
	<outline>
		<contour>
			<point x="546" y="-23"/>
			<point x="650" y="22"/>
			<point x="721" y="110" type="curve"/>
			<point x="681" y="153" type="line"/>
			<point x="630" y="105"/>
			<point x="551" y="63"/>
			<point x="456" y="62" type="curve" smooth="yes"/>
			<point x="272" y="60"/>
			<point x="192" y="184"/>
			<point x="189" y="363" type="curve" smooth="yes"/>
			<point x="185" y="565"/>
			<point x="279" y="717"/>
			<point x="435" y="717" type="curve" smooth="yes"/>
			<point x="558" y="717"/>
			<point x="599" y="648"/>
			<point x="616" y="644" type="curve"/>
			<point x="669" y="739"/>
			<point x="499" y="770"/>
			<point x="485" y="749" type="curve"/>
			<point x="531" y="742"/>
			<point x="602" y="641"/>
			<point x="634" y="553" type="curve"/>
			<point x="693" y="550" type="line"/>
			<point x="703" y="592"/>
			<point x="707" y="722"/>
			<point x="704" y="773" type="curve"/>
			<point x="704" y="773"/>
			<point x="630" y="805"/>
			<point x="496" y="798" type="curve" smooth="yes"/>
			<point x="204" y="783"/>
			<point x="43" y="556"/>
			<point x="58" y="297" type="curve" smooth="yes"/>
			<point x="69" y="90"/>
			<point x="210" y="-23"/>
			<point x="414" y="-23" type="curve" smooth="yes"/>
		</contour>
		<contour>
			<point name="top" x="454" y="877" type="move"/>
		</contour>
		<contour>
			<point name="bottom" x="374" y="0" type="move"/>
		</contour>
	</outline>
</glyph>
<glyph name="E" format="1">
  <advance width="697"/>
  <unicode hex="0045"/>
  <outline>
    <contour>
      <point x="651" y="0" type="line"/>
      <point x="657" y="86"/>
      <point x="655" y="207"/>
      <point x="655" y="212" type="curve"/>
      <point x="583" y="204" type="line"/>
      <point x="568" y="138"/>
      <point x="545" y="78"/>
      <point x="502" y="29" type="curve"/>
      <point x="580" y="91" type="line"/>
      <point x="529" y="78"/>
      <point x="369" y="63"/>
      <point x="279" y="73" type="curve" smooth="yes"/>
      <point x="243" y="77"/>
      <point x="238" y="108"/>
      <point x="237" y="135" type="curve" smooth="yes"/>
      <point x="232" y="258"/>
      <point x="227" y="470"/>
      <point x="247" y="673" type="curve" smooth="yes"/>
      <point x="250" y="703"/>
      <point x="262" y="733"/>
      <point x="312" y="733" type="curve" smooth="yes"/>
      <point x="411" y="733"/>
      <point x="502" y="730"/>
      <point x="583" y="722" type="curve"/>
      <point x="488" y="771" type="line"/>
      <point x="531" y="732"/>
      <point x="556" y="663"/>
      <point x="563" y="604" type="curve"/>
      <point x="635" y="597" type="line"/>
      <point x="635" y="597"/>
      <point x="642" y="661"/>
      <point x="642" y="720" type="curve"/>
      <point x="641" y="801" type="line"/>
      <point x="544" y="796"/>
      <point x="432" y="795"/>
      <point x="346" y="795" type="curve" smooth="yes"/>
      <point x="263" y="795"/>
      <point x="112" y="794"/>
      <point x="36" y="800" type="curve"/>
      <point x="41" y="739" type="line"/>
      <point x="111" y="740"/>
      <point x="125" y="711"/>
      <point x="128" y="663" type="curve" smooth="yes"/>
      <point x="137" y="488"/>
      <point x="133" y="283"/>
      <point x="122" y="141" type="curve" smooth="yes"/>
      <point x="118" y="92"/>
      <point x="112" y="67"/>
      <point x="35" y="61" type="curve"/>
      <point x="41" y="0" type="line"/>
    </contour>
    <contour>
      <point x="297" y="369"/>
      <point x="427" y="377"/>
      <point x="552" y="370" type="curve"/>
      <point x="552" y="461" type="line"/>
      <point x="400" y="444" type="line"/>
      <point x="172" y="443" type="line"/>
      <point x="172" y="367" type="line"/>
    </contour>
    <contour>
      <point x="627" y="10" type="move" name="ogonek"/>
    </contour>
    <contour>
      <point x="349" y="0" type="move" name="bottom"/>
    </contour>
    <contour>
      <point x="366" y="849" type="move" name="top"/>
    </contour>
  </outline>
</glyph>
<glyph name="U" format="1">
	<unicode hex="0055"/>
	<advance width="767"/>
	<outline>
		<contour>
			<point x="490" y="-17"/>
			<point x="640" y="46"/>
			<point x="656" y="237" type="curve" smooth="yes"/>
			<point x="665" y="344"/>
			<point x="657" y="499"/>
			<point x="666" y="663" type="curve" smooth="yes"/>
			<point x="669" y="716"/>
			<point x="696" y="732"/>
			<point x="766" y="735" type="curve"/>
			<point x="763" y="754"/>
			<point x="758" y="800"/>
			<point x="758" y="800" type="curve"/>
			<point x="681" y="796"/>
			<point x="552" y="795"/>
			<point x="451" y="799" type="curve"/>
			<point x="453" y="790"/>
			<point x="457" y="757"/>
			<point x="460" y="741" type="curve"/>
			<point x="530" y="741"/>
			<point x="576" y="733"/>
			<point x="577" y="642" type="curve" smooth="yes"/>
			<point x="577" y="641" type="line" smooth="yes"/>
			<point x="578" y="515"/>
			<point x="584" y="389"/>
			<point x="575" y="267" type="curve" smooth="yes"/>
			<point x="566" y="146"/>
			<point x="502" y="70"/>
			<point x="407" y="62" type="curve" smooth="yes"/>
			<point x="268" y="51"/>
			<point x="208" y="135"/>
			<point x="198" y="252" type="curve" smooth="yes"/>
			<point x="194" y="295"/>
			<point x="196" y="504"/>
			<point x="205" y="632" type="curve" smooth="yes"/>
			<point x="210" y="699"/>
			<point x="226" y="730"/>
			<point x="327" y="736" type="curve"/>
			<point x="324" y="755"/>
			<point x="319" y="801"/>
			<point x="319" y="801" type="curve"/>
			<point x="191" y="794"/>
			<point x="93" y="796"/>
			<point x="-22" y="800" type="curve"/>
			<point x="-20" y="791"/>
			<point x="-16" y="753"/>
			<point x="-13" y="737" type="curve"/>
			<point x="70" y="738"/>
			<point x="85" y="711"/>
			<point x="89" y="640" type="curve" smooth="yes"/>
			<point x="93" y="556"/>
			<point x="82" y="356"/>
			<point x="82" y="232" type="curve" smooth="yes"/>
			<point x="82" y="27"/>
			<point x="246" y="-17"/>
			<point x="361" y="-17" type="curve" smooth="yes"/>
		</contour>
		<contour>
			<point name="ogonek" x="440" y="0" type="move"/>
		</contour>
		<contour>
			<point name="bottom" x="368" y="9" type="move"/>
		</contour>
		<contour>
			<point name="top" x="384" y="864" type="move"/>
		</contour>
	</outline>
</glyph>
<glyph name="c" format="1">
	<unicode hex="0063"/>
	<advance width="580"/>
	<outline>
		<contour>
			<point x="41" y="408"/>
			<point x="142" y="603"/>
			<point x="369" y="610" type="curve" smooth="yes"/>
			<point x="467" y="613"/>
			<point x="530" y="581"/>
			<point x="530" y="581" type="curve"/>
			<point x="532" y="543"/>
			<point x="532" y="473"/>
			<point x="525" y="428" type="curve"/>
			<point x="465" y="434" type="line"/>
			<point x="444" y="477"/>
			<point x="425" y="516"/>
			<point x="376" y="550" type="curve"/>
			<point x="410" y="541"/>
			<point x="432" y="522"/>
			<point x="447" y="497" type="curve"/>
			<point x="425" y="515"/>
			<point x="380" y="543"/>
			<point x="328" y="543" type="curve" smooth="yes"/>
			<point x="225" y="543"/>
			<point x="163" y="427"/>
			<point x="166" y="270" type="curve" smooth="yes"/>
			<point x="170" y="137"/>
			<point x="241" y="55"/>
			<point x="360" y="53" type="curve" smooth="yes"/>
			<point x="428" y="52"/>
			<point x="485" y="79"/>
			<point x="523" y="112" type="curve"/>
			<point x="545" y="77" type="line"/>
			<point x="489" y="14"/>
			<point x="414" y="-21"/>
			<point x="320" y="-21" type="curve" smooth="yes"/>
			<point x="174" y="-21"/>
			<point x="47" y="50"/>
			<point x="44" y="250" type="curve" smooth="yes"/>
		</contour>
		<contour>
			<point name="top" x="340" y="656" type="move"/>
		</contour>
		<contour>
			<point name="bottom" x="335" y="0" type="move"/>
		</contour>
	</outline>
</glyph>
<glyph name="p" format="1">
	<unicode hex="0070"/>
	<advance width="768"/>
	<outline>
		<contour>
			<point x="47" y="531" type="line"/>
			<point x="130" y="533"/>
			<point x="165" y="501"/>
			<point x="170" y="456" type="curve" smooth="yes"/>
			<point x="172" y="439"/>
			<point x="173" y="411"/>
			<point x="173" y="375" type="curve" smooth="yes"/>
			<point x="173" y="327"/>
			<point x="171" y="178"/>
			<point x="168" y="52" type="curve" smooth="yes"/>
			<point x="165" y="-97"/>
			<point x="167" y="-153"/>
			<point x="90" y="-164" type="curve" smooth="yes"/>
			<point x="81" y="-165"/>
			<point x="71" y="-166"/>
			<point x="60" y="-166" type="curve"/>
			<point x="68" y="-228" type="line"/>
			<point x="407" y="-228" type="line"/>
			<point x="397" y="-180" type="line"/>
			<point x="392" y="-180"/>
			<point x="387" y="-180"/>
			<point x="382" y="-179" type="curve" smooth="yes"/>
			<point x="286" y="-172"/>
			<point x="281" y="-96"/>
			<point x="278" y="30" type="curve" smooth="yes"/>
			<point x="276" y="134"/>
			<point x="277" y="231"/>
			<point x="277" y="279" type="curve" smooth="yes"/>
			<point x="277" y="349"/>
			<point x="281" y="422"/>
			<point x="284" y="488" type="curve"/>
			<point x="261" y="480" type="line"/>
			<point x="267" y="506"/>
			<point x="284" y="608"/>
			<point x="284" y="608" type="curve" smooth="yes"/>
			<point x="284" y="608"/>
			<point x="182" y="594"/>
			<point x="88" y="594" type="curve" smooth="yes"/>
			<point x="71" y="594"/>
			<point x="55" y="594"/>
			<point x="40" y="595" type="curve"/>
		</contour>
		<contour>
			<point x="267" y="-3"/>
			<point x="349" y="-12"/>
			<point x="427" y="5" type="curve" smooth="yes"/>
			<point x="630" y="50"/>
			<point x="713" y="228"/>
			<point x="712" y="370" type="curve" smooth="yes"/>
			<point x="711" y="527"/>
			<point x="617" y="614"/>
			<point x="491" y="614" type="curve" smooth="yes"/>
			<point x="378" y="614"/>
			<point x="282" y="535"/>
			<point x="250" y="461" type="curve"/>
			<point x="281" y="420" type="line"/>
			<point x="302" y="474"/>
			<point x="369" y="534"/>
			<point x="440" y="532" type="curve" smooth="yes"/>
			<point x="543" y="529"/>
			<point x="579" y="434"/>
			<point x="578" y="331" type="curve" smooth="yes"/>
			<point x="576" y="181"/>
			<point x="517" y="80"/>
			<point x="429" y="62" type="curve" smooth="yes"/>
			<point x="338" y="43"/>
			<point x="267" y="100"/>
			<point x="267" y="100" type="curve"/>
			<point x="227" y="12" type="line"/>
		</contour>
	</outline>
</glyph>
<glyph name="asciitilde" format="1">
  <advance width="600"/>
  <unicode hex="007E"/>
  <outline>
    <contour>
      <point x="25" y="307"/>
      <point x="64" y="375"/>
      <point x="154" y="375" type="curve" smooth="yes"/>
      <point x="266" y="375"/>
      <point x="284" y="279"/>
      <point x="387" y="279" type="curve" smooth="yes"/>
      <point x="448" y="279"/>
      <point x="469" y="310"/>
      <point x="500" y="364" type="curve"/>
      <point x="545" y="333" type="line"/>
      <point x="514" y="266"/>
      <point x="476" y="195"/>
      <point x="384" y="195" type="curve" smooth="yes"/>
      <point x="264" y="195"/>
      <point x="227" y="297"/>
      <point x="146" y="297" type="curve" smooth="yes"/>
      <point x="104" y="297"/>
      <point x="63" y="259"/>
      <point x="47" y="224" type="curve"/>
      <point x="3" y="253" type="line"/>
    </contour>
  </outline>
</glyph>
<glyph name="macron" format="1">
  <advance width="0"/>
  <unicode hex="00AF"/>
  <outline>
    <contour>
      <point x="181" y="762" type="line"/>
      <point x="171" y="836" type="line"/>
      <point x="-197" y="836" type="line"/>
      <point x="-187" y="762" type="line"/>
    </contour>
    <contour>
      <point x="2" y="656" type="move" name="_top"/>
    </contour>
  </outline>
</glyph>
<glyph name="acute" format="1">
	<unicode hex="00B4"/>
	<outline>
		<contour>
			<point x="-6" y="908"/>
			<point x="81" y="955"/>
			<point x="144" y="991" type="curve"/>
			<point x="84" y="1085" type="line"/>
			<point x="41" y="1029"/>
			<point x="-72" y="959"/>
			<point x="-144" y="927" type="curve"/>
			<point x="-124" y="873" type="line"/>
		</contour>
		<contour>
			<point name="_top" x="0" y="867" type="move"/>
		</contour>
	</outline>
</glyph>
<glyph name="AE" format="1">
	<unicode hex="00C6"/>
	<advance width="1541"/>
	<outline>
		<component base="A"/>
		<component base="E" xOffset="844"/>
		<contour>
			<point name="top" x="771" y="0" type="move"/>
		</contour>
	</outline>
</glyph>
<glyph name="oslash" format="1">
  <advance width="662"/>
  <unicode hex="00F8"/>
  <outline>
    <component base="o"/>
    <component base="slash" xOffset="80" yOffset="-40"/>
    <contour>
      <point x="331" y="679" type="move" name="top"/>
    </contour>
  </outline>
</glyph>
<glyph name="OE" format="1">
  <advance width="1515"/>
  <unicode hex="0152"/>
  <outline>
    <component base="O"/>
    <component base="E" xOffset="818"/>
    <contour>
      <point x="758" y="0" type="move" name="top"/>
    </contour>
  </outline>
</glyph>
<glyph name="oe" format="1">
  <advance width="1272"/>
  <unicode hex="0153"/>
  <outline>
    <component base="o"/>
    <component base="e" xOffset="662"/>
    <contour>
      <point x="636" y="0" type="move" name="top"/>
    </contour>
  </outline>
</glyph>
<glyph name="tbar" format="1">
  <advance width="600"/>
  <unicode hex="0167"/>
  <outline>
    <contour>
      <point x="387" y="294" type="line"/>
      <point x="382" y="328"/>
      <point x="381" y="344"/>
      <point x="379" y="371" type="curve"/>
      <point x="267" y="368"/>
      <point x="121" y="364"/>
      <point x="13" y="371" type="curve"/>
      <point x="19" y="294" type="line"/>
    </contour>
    <component base="t"/>
    <contour>
      <point x="230" y="737" type="move" name="center"/>
    </contour>
    <contour>
      <point x="230" y="0" type="move" name="bottom"/>
    </contour>
    <contour>
      <point x="440" y="737" type="move" name="topright"/>
    </contour>
  </outline>
</glyph>
<glyph name="circumflex" format="1">
	<unicode hex="02C6"/>
	<outline>
		<contour>
			<point x="-109" y="925"/>
			<point x="-31" y="969"/>
			<point x="-1" y="1002" type="curve"/>
			<point x="29" y="969"/>
			<point x="102" y="918"/>
			<point x="151" y="909" type="curve"/>
			<point x="180" y="964" type="line"/>
			<point x="109" y="996"/>
			<point x="52" y="1051"/>
			<point x="27" y="1096" type="curve"/>
			<point x="-26" y="1096" type="line"/>
			<point x="-52" y="1052"/>
			<point x="-105" y="1007"/>
			<point x="-185" y="964" type="curve"/>
			<point x="-153" y="909" type="line"/>
		</contour>
		<contour>
			<point name="_top" x="-3" y="873" type="move"/>
		</contour>
	</outline>
</glyph>
<glyph name="caron" format="1">
	<unicode hex="02C7"/>
	<outline>
		<contour>
			<point x="107" y="1045"/>
			<point x="29" y="1001"/>
			<point x="-1" y="968" type="curve"/>
			<point x="-31" y="1001"/>
			<point x="-104" y="1052"/>
			<point x="-153" y="1061" type="curve"/>
			<point x="-182" y="1006" type="line"/>
			<point x="-111" y="974"/>
			<point x="-54" y="919"/>
			<point x="-29" y="874" type="curve"/>
			<point x="24" y="874" type="line"/>
			<point x="50" y="918"/>
			<point x="103" y="963"/>
			<point x="183" y="1006" type="curve"/>
			<point x="151" y="1061" type="line"/>
		</contour>
		<contour>
			<point name="_top" x="1" y="838" type="move"/>
		</contour>
	</outline>
</glyph>
<glyph name="firsttonechinese" format="1">
  <advance width="0"/>
  <unicode hex="02C9"/>
  <outline>
    <contour>
      <point x="398" y="756" type="line"/>
      <point x="388" y="830" type="line"/>
      <point x="20" y="830" type="line"/>
      <point x="30" y="756" type="line"/>
    </contour>
  </outline>
</glyph>
<glyph name="tilde" format="1">
  <advance width="0"/>
  <unicode hex="02DC"/>
  <outline>
    <contour>
      <point x="223" y="987" type="line"/>
      <point x="191" y="1017"/>
      <point x="150" y="1041"/>
      <point x="86" y="1040" type="curve" smooth="yes"/>
      <point x="31" y="1040"/>
      <point x="-1" y="1014"/>
      <point x="-58" y="1014" type="curve" smooth="yes"/>
      <point x="-105" y="1015"/>
      <point x="-141" y="1027"/>
      <point x="-170" y="1047" type="curve"/>
      <point x="-207" y="992" type="line"/>
      <point x="-189" y="970"/>
      <point x="-130" y="935"/>
      <point x="-61" y="936" type="curve" smooth="yes"/>
      <point x="4" y="936"/>
      <point x="40" y="957"/>
      <point x="87" y="958" type="curve" smooth="yes"/>
      <point x="126" y="959"/>
      <point x="157" y="951"/>
      <point x="186" y="932" type="curve"/>
    </contour>
    <contour>
      <point x="0" y="874" type="move" name="_top"/>
    </contour>
  </outline>
</glyph>
<glyph name="hungarumlaut" format="1">
  <advance width="600"/>
  <unicode hex="02DD"/>
  <outline>
    <component base="acute" xOffset="891" yOffset="121" xScale="0.788" yScale="0.788" xyScale="0.616" yxScale="-0.616"/>
    <component base="acute" xOffset="740" yOffset="160" xScale="0.788" yScale="0.788" xyScale="0.616" yxScale="-0.616"/>
    <contour>
      <point x="186" y="619" type="move" name="_top"/>
    </contour>
  </outline>
</glyph>
<glyph name="gravecomb" format="1">
	<unicode hex="0300"/>
	<outline>
		<component base="grave"/>
		<contour>
			<point name="_top" x="-7" y="0" type="move"/>
		</contour>
	</outline>
</glyph>
<glyph name="acutecomb" format="1">
  <advance width="0"/>
  <unicode hex="0301"/>
  <outline>
    <component base="acute" yOffset="51"/>
    <contour>
      <point x="0" y="822" type="move" name="_top"/>
    </contour>
  </outline>
</glyph>
<glyph name="circumflexcomb" format="1">
	<unicode hex="0302"/>
	<outline>
		<component base="circumflex"/>
		<contour>
			<point name="_top" x="-3" y="885" type="move"/>
		</contour>
	</outline>
</glyph>
<glyph name="tildecomb" format="1">
	<unicode hex="0303"/>
	<outline>
		<component base="tilde"/>
		<contour>
			<point name="top" x="0" y="907" type="move"/>
		</contour>
		<contour>
			<point name="_top" x="8" y="0" type="move"/>
		</contour>
	</outline>
</glyph>
<glyph name="macroncomb" format="1">
  <advance width="0"/>
  <unicode hex="0304"/>
  <outline>
    <component base="macron"/>
    <contour>
      <point x="-9" y="669" type="move" name="_top"/>
    </contour>
  </outline>
</glyph>
<glyph name="brevecomb" format="1">
	<unicode hex="0306"/>
	<outline>
		<component base="breve"/>
		<contour>
			<point name="_top" x="0" y="843" type="move"/>
		</contour>
	</outline>
</glyph>
<glyph name="dotaccentcomb" format="1">
  <advance width="0"/>
  <unicode hex="0307"/>
  <outline>
    <component base="dotaccent"/>
    <contour>
      <point x="0" y="717" type="move" name="_top"/>
    </contour>
  </outline>
</glyph>
<glyph name="dieresiscomb" format="1">
  <advance width="0"/>
  <unicode hex="0308"/>
  <outline>
    <component base="dieresis"/>
    <contour>
      <point x="1" y="927" type="move" name="top"/>
    </contour>
    <contour>
      <point x="-4" y="0" type="move" name="_top"/>
    </contour>
  </outline>
</glyph>
<glyph name="hookabovecomb" format="1">
	<unicode hex="0309"/>
	<advance width="600"/>
	<outline>
		<contour>
			<point x="218" y="1094"/>
			<point x="130" y="1100"/>
			<point x="66" y="1081" type="curve"/>
			<point x="37" y="1025" type="line"/>
			<point x="80" y="1025"/>
			<point x="151" y="1028"/>
			<point x="188" y="971" type="curve" smooth="yes"/>
			<point x="225" y="915"/>
			<point x="201" y="875"/>
			<point x="130" y="791" type="curve"/>
			<point x="188" y="794" type="line"/>
			<point x="273" y="826"/>
			<point x="314" y="950"/>
			<point x="265" y="1024" type="curve" smooth="yes"/>
		</contour>
		<contour>
			<point name="_top" x="183" y="789" type="move"/>
		</contour>
	</outline>
</glyph>
<glyph name="ringcomb" format="1">
  <advance width="0"/>
  <unicode hex="030A"/>
  <outline>
    <component base="ring" yOffset="110"/>
    <contour>
      <point x="0" y="860" type="move" name="_top"/>
    </contour>
  </outline>
</glyph>
<glyph name="hungarumlautcomb" format="1">
  <advance width="288"/>
  <unicode hex="030B"/>
  <outline>
    <component base="acute" xOffset="831" yOffset="121" xScale="0.788" yScale="0.788" xyScale="0.616" yxScale="-0.616"/>
    <component base="acute" xOffset="680" yOffset="160" xScale="0.788" yScale="0.788" xyScale="0.616" yxScale="-0.616"/>
    <contour>
      <point x="145" y="905" type="move" name="top"/>
    </contour>
    <contour>
      <point x="144" y="0" type="move" name="_top"/>
    </contour>
  </outline>
</glyph>
<glyph name="dblgravecomb" format="1">
	<unicode hex="030F"/>
	<advance width="600"/>
	<outline>
		<component base="acute" xScale="-0.788" xyScale="0.616" yxScale="0.616" yScale="0.788" xOffset="-501" yOffset="121"/>
		<component base="acute" xScale="-0.788" xyScale="0.616" yxScale="0.616" yScale="0.788" xOffset="-350" yOffset="160"/>
		<contour>
			<point name="_top" x="186" y="619" type="move"/>
		</contour>
	</outline>
</glyph>
<glyph name="commaturnedabovecomb" format="1">
  <advance width="278"/>
  <unicode hex="0312"/>
  <outline>
    <component base="comma" xOffset="173" yOffset="1005" xScale="-0.985" yScale="-0.985" xyScale="0.174" yxScale="-0.174"/>
    <contour>
      <point x="1" y="838" type="move" name="_top"/>
    </contour>
  </outline>
</glyph>
<glyph name="horncomb" format="1">
  <advance width="0"/>
  <unicode hex="031B"/>
  <outline>
    <contour>
      <point x="134" y="880"/>
      <point x="75" y="946"/>
      <point x="15" y="977" type="curve"/>
      <point x="-5" y="977"/>
      <point x="-24" y="970"/>
      <point x="-44" y="957" type="curve"/>
      <point x="-13" y="927"/>
      <point x="40" y="880"/>
      <point x="27" y="813" type="curve" smooth="yes"/>
      <point x="14" y="747"/>
      <point x="-74" y="715"/>
      <point x="-144" y="734" type="curve"/>
      <point x="-106" y="676" type="line"/>
      <point x="7" y="640"/>
      <point x="103" y="710"/>
      <point x="119" y="797" type="curve" smooth="yes"/>
    </contour>
    <contour>
      <point x="0" y="615" type="move" name="_top"/>
    </contour>
  </outline>
</glyph>
<glyph name="dotbelowcomb" format="1">
  <advance width="600"/>
  <unicode hex="0323"/>
  <outline>
    <component base="dotaccent" xOffset="283" yOffset="-1043"/>
    <contour>
      <point x="273" y="0" type="move" name="_bottom"/>
    </contour>
  </outline>
</glyph>
<glyph name="cedillacomb" format="1">
  <advance width="0"/>
  <unicode hex="0327"/>
  <outline>
    <component base="cedilla"/>
    <contour>
      <point x="-18" y="1" type="move" name="top"/>
    </contour>
    <contour>
      <point x="39" y="0" type="move" name="_bottom"/>
    </contour>
    <contour>
      <point x="-18" y="0" type="move" name="_top"/>
    </contour>
    <contour>
      <point x="-18" y="-311" type="move" name="bottom"/>
    </contour>
  </outline>
</glyph>
<glyph name="endash" format="1">
	<unicode hex="2013"/>
	<advance width="500"/>
	<outline>
		<contour>
			<point x="460" y="328" type="line"/>
			<point x="460" y="433" type="line"/>
			<point x="39" y="433" type="line"/>
			<point x="39" y="328" type="line"/>
		</contour>
	</outline>
</glyph>
<glyph name="emdash" format="1">
	<unicode hex="2014"/>
	<advance width="1000"/>
	<outline>
		<contour>
			<point x="960" y="328" type="line"/>
			<point x="960" y="433" type="line"/>
			<point x="39" y="433" type="line"/>
			<point x="39" y="328" type="line"/>
		</contour>
	</outline>
</glyph>
<glyph name="quoteleft" format="1">
	<unicode hex="2018"/>
	<advance width="210"/>
	<outline>
		<contour>
			<point x="153" y="553" type="curve"/>
			<point x="142" y="647"/>
			<point x="155" y="713"/>
			<point x="175" y="778" type="curve" smooth="yes"/>
			<point x="134" y="806" type="line" smooth="yes"/>
			<point x="73" y="757"/>
			<point x="29" y="658"/>
			<point x="33" y="573" type="curve"/>
			<point x="65" y="535"/>
			<point x="133" y="542"/>
		</contour>
	</outline>
</glyph>
<glyph name="quoteright" format="1">
  <advance width="600"/>
  <unicode hex="2019"/>
  <outline>
    <contour>
      <point x="158" y="539"/>
      <point x="220" y="677"/>
      <point x="221" y="783" type="curve"/>
      <point x="188" y="792"/>
      <point x="123" y="799"/>
      <point x="84" y="794" type="curve"/>
      <point x="86" y="695"/>
      <point x="63" y="580"/>
      <point x="38" y="514" type="curve"/>
      <point x="112" y="484" type="line"/>
    </contour>
  </outline>
</glyph>
<glyph name="bullet" format="1">
	<unicode hex="2022"/>
	<advance width="600"/>
	<outline>
		<contour>
			<point x="369" y="267"/>
			<point x="430" y="323"/>
			<point x="430" y="408" type="curve" smooth="yes"/>
			<point x="430" y="490"/>
			<point x="368" y="542"/>
			<point x="296" y="542" type="curve" smooth="yes"/>
			<point x="216" y="542"/>
			<point x="153" y="483"/>
			<point x="154" y="401" type="curve" smooth="yes"/>
			<point x="154" y="330"/>
			<point x="206" y="267"/>
			<point x="298" y="267" type="curve" smooth="yes"/>
		</contour>
		<component base="period" xScale="1.741" yScale="1.741" xOffset="23" yOffset="316"/>
		<component base="period" xScale="1.741" yScale="1.741" xOffset="23" yOffset="316"/>
	</outline>
</glyph>
<glyph name="fl" format="1">
  <advance width="887"/>
  <unicode hex="FB02"/>
  <outline>
    <component base="f"/>
    <component base="l" xOffset="489"/>
    <contour>
      <point x="444" y="0" type="move" name="caret_1"/>
    </contour>
  </outline>
</glyph>
